<mxfile host="app.diagrams.net" modified="2023-10-30T15:01:43.210Z" agent="Mozilla/5.0 (Windows NT 10.0; Win64; x64) AppleWebKit/537.36 (KHTML, like Gecko) Chrome/118.0.0.0 Safari/537.36" etag="nX3ISBrE42glJElcCIZt" version="22.0.8" type="github">
  <diagram name="WelcomeScreen" id="mfQMw5Pb5CHKa7xe4WTC">
    <mxGraphModel dx="478" dy="250" grid="1" gridSize="10" guides="1" tooltips="1" connect="1" arrows="1" fold="1" page="1" pageScale="1" pageWidth="850" pageHeight="1100" math="0" shadow="0">
      <root>
        <mxCell id="0" />
        <mxCell id="1" parent="0" />
        <mxCell id="clfQYuhrUxXyttJt1vrx-9" value="" style="rounded=0;whiteSpace=wrap;html=1;" vertex="1" parent="1">
          <mxGeometry x="310" y="167" width="220" height="520" as="geometry" />
        </mxCell>
        <mxCell id="clfQYuhrUxXyttJt1vrx-1" value="" style="endArrow=none;html=1;rounded=0;" edge="1" parent="1">
          <mxGeometry width="50" height="50" relative="1" as="geometry">
            <mxPoint x="510" y="207" as="sourcePoint" />
            <mxPoint x="510" y="207.0000000000001" as="targetPoint" />
          </mxGeometry>
        </mxCell>
        <mxCell id="clfQYuhrUxXyttJt1vrx-2" value="" style="rounded=0;whiteSpace=wrap;html=1;" vertex="1" parent="1">
          <mxGeometry x="310" y="200" width="220" height="487" as="geometry" />
        </mxCell>
        <mxCell id="clfQYuhrUxXyttJt1vrx-3" value="&lt;font style=&quot;font-size: 23px;&quot;&gt;Welcome&lt;/font&gt;" style="text;html=1;strokeColor=none;fillColor=none;align=center;verticalAlign=middle;whiteSpace=wrap;rounded=0;" vertex="1" parent="1">
          <mxGeometry x="375" y="257" width="90" height="30" as="geometry" />
        </mxCell>
        <mxCell id="clfQYuhrUxXyttJt1vrx-4" value="" style="rounded=0;whiteSpace=wrap;html=1;" vertex="1" parent="1">
          <mxGeometry x="350" y="307" width="140" height="150" as="geometry" />
        </mxCell>
        <mxCell id="clfQYuhrUxXyttJt1vrx-5" value="App welcome info (description, features)" style="text;html=1;strokeColor=none;fillColor=none;align=center;verticalAlign=middle;whiteSpace=wrap;rounded=0;" vertex="1" parent="1">
          <mxGeometry x="370" y="332.5" width="95" height="49" as="geometry" />
        </mxCell>
        <mxCell id="clfQYuhrUxXyttJt1vrx-6" value="Sign in&amp;nbsp;" style="rounded=0;whiteSpace=wrap;html=1;" vertex="1" parent="1">
          <mxGeometry x="360" y="587" width="120" height="30" as="geometry" />
        </mxCell>
        <mxCell id="clfQYuhrUxXyttJt1vrx-7" value="&lt;div style=&quot;&quot;&gt;Create New Account&lt;/div&gt;" style="rounded=0;whiteSpace=wrap;html=1;align=center;verticalAlign=middle;" vertex="1" parent="1">
          <mxGeometry x="360" y="527" width="120" height="30" as="geometry" />
        </mxCell>
        <mxCell id="clfQYuhrUxXyttJt1vrx-8" value="&lt;h1&gt;Chronicle&lt;/h1&gt;&lt;p&gt;&lt;br&gt;&lt;/p&gt;" style="text;html=1;strokeColor=none;fillColor=none;spacing=5;spacingTop=-20;whiteSpace=wrap;overflow=hidden;rounded=0;align=center;" vertex="1" parent="1">
          <mxGeometry x="355" y="207" width="130" height="40" as="geometry" />
        </mxCell>
      </root>
    </mxGraphModel>
  </diagram>
</mxfile>
